PathFileType	4	(X/Y/Z)	C:\Users\Biomechanik\SynologyDrive\AlexP\Athlete_03\Athlete_3_25_03_31\Walking_10\marker_experimental.trc
DataRate	CameraRate	NumFrames	NumMarkers	Units	OrigDataRate	OrigDataStartFrame	OrigNumFrames
200.000000	200.000000	4	53	mm	200.000000	83	223
Frame#	Time	GLAB			RFHD			LFHD			C7			T6			SPINMOL			SPINM2			SPINM3			T12			BELTOL			BELT2			BELT3			SACROL			SACR2			SACR3			LTHOL			LTH2			LTH3			LSHAOL			LSHA2			LSHA3			LHEE			LTOE			LM5			RTHOL			RTH2			RTH3			RSHAOL			RSHA2			RSHA3			RHEE			RTOE			RM5			STRN			XIPH			LACR			LUAOL			LUA2			LUA3			LLAOL			LLA2			LLA3			LWRR			LWRU			RACR			RUAOL			RUA2			RUA3			RLAOL			RLA2			RLA3			RWRR			RWRU			
		X1	Y1	Z1	X2	Y2	Z2	X3	Y3	Z3	X4	Y4	Z4	X5	Y5	Z5	X6	Y6	Z6	X7	Y7	Z7	X8	Y8	Z8	X9	Y9	Z9	X10	Y10	Z10	X11	Y11	Z11	X12	Y12	Z12	X13	Y13	Z13	X14	Y14	Z14	X15	Y15	Z15	X16	Y16	Z16	X17	Y17	Z17	X18	Y18	Z18	X19	Y19	Z19	X20	Y20	Z20	X21	Y21	Z21	X22	Y22	Z22	X23	Y23	Z23	X24	Y24	Z24	X25	Y25	Z25	X26	Y26	Z26	X27	Y27	Z27	X28	Y28	Z28	X29	Y29	Z29	X30	Y30	Z30	X31	Y31	Z31	X32	Y32	Z32	X33	Y33	Z33	X34	Y34	Z34	X35	Y35	Z35	X36	Y36	Z36	X37	Y37	Z37	X38	Y38	Z38	X39	Y39	Z39	X40	Y40	Z40	X41	Y41	Z41	X42	Y42	Z42	X43	Y43	Z43	X44	Y44	Z44	X45	Y45	Z45	X46	Y46	Z46	X47	Y47	Z47	X48	Y48	Z48	X49	Y49	Z49	X50	Y50	Z50	X51	Y51	Z51	X52	Y52	Z52	X53	Y53	Z53	

84	0.415	69.48100280761705	1582.99267578125	236.9290161132812	21.08038330078109	1611.602783203125	301.5100402832031	27.13877487182604	1607.480224609375	163.5487213134766	-162.6731719970704	1430.9609375	230.7840576171875	-226.200897216797	1264.805541992188	227.5686798095703	-234.8566894531251	1225.072021484375	206.0587005615234	-240.3061981201173	1217.655395507812	255.8656921386718	-233.1268005371095	1160.871459960938	221.6818237304687	-212.9068908691407	1093.7578125	222.1219787597656	-247.4936676025391	1059.162109375	202.5186462402343	-249.6452178955079	1057.330444335938	253.4361572265624	-254.2311096191407	996.9906005859375	223.5374450683593	-235.2057342529298	946.8941650390625	194.5108184814453	-238.3287506103517	945.461181640625	246.2704162597656	-252.814926147461	887.0217895507812	217.7850494384765	-30.15390586853032	669.6738891601562	26.20467376708984	-48.00892257690434	596.9071044921875	49.13886642456054	-3.366114377975508	614.84326171875	36.80436325073242	54.69268417358396	340.468994140625	27.35565948486329	17.81894874572751	272.4908142089844	44.86488342285156	66.06616210937499	280.0291442871094	34.46766662597658	36.41763687133786	76.46725463867188	124.126579284668	257.1743774414062	93.33784484863283	111.0615386962891	214.7393493652344	58.73268127441408	19.62841987609867	-194.7734985351564	688.6922607421875	401.2344665527343	-148.2918548583986	624.1520385742188	404.3860168457031	-195.8800659179689	628.808837890625	389.0524597167968	-274.7626342773438	343.3660888671875	372.7920837402343	-253.5511016845704	267.3211364746094	366.0971374511718	-298.8067932128907	287.8926086425781	358.5256347656249	-371.3735656738282	80.63625335693357	245.2594757080078	-164.619125366211	43.2893943786621	253.8200378417968	-213.6087493896485	39.82254028320311	356.6886596679687	5.448239326476928	1325.996459960938	226.0268707275391	15.73347854614246	1181.416259765625	227.0590667724609	-90.1696777343751	1391.358642578125	53.13642120361327	-120.2203369140626	1238.794677734375	-49.54766845703127	-142.9350891113282	1179.344970703125	-68.04500579833987	-94.88234710693365	1178.195434570312	-51.1959915161133	-138.9683532714844	979.0780639648438	-102.704216003418	-185.8066558837891	917.3693237304688	-85.80342864990237	-140.2013702392578	917.3409423828125	-106.3360595703125	-133.440170288086	813.953857421875	-116.5400466918946	-85.30073547363284	805.407958984375	-54.5056495666504	-72.27570343017594	1382.748413085938	396.9091796875	-66.05579376220719	1238.85009765625	501.5314025878906	-31.58636093139665	1182.19873046875	507.0096740722656	-79.16999053955095	1179.5419921875	527.02099609375	28.598793029785	976.1033325195312	544.2777709960938	106.3460845947264	958.1800537109375	546.63623046875	68.00949096679672	929.08056640625	533.4514770507812	141.6182250976561	876.3900756835938	520.3563232421875	168.0372314453124	895.8716430664062	445.4311828613282	
85	0.42	76.67134094238267	1581.7744140625	235.9153900146484	28.28037643432602	1610.499145507812	300.4581909179688	34.35924530029284	1606.13525390625	162.4774780273438	-155.4939422607423	1429.83349609375	229.9883270263672	-219.1163787841798	1263.7421875	226.7686614990234	-227.7483520507814	1223.988647460938	205.2403411865234	-233.4094238281251	1216.618896484375	255.0579833984374	-226.1703186035157	1159.8173828125	220.903335571289	-206.0199737548829	1092.640502929688	221.3933410644531	-240.349594116211	1058.01708984375	201.7688598632812	-242.7022552490236	1056.328002929688	252.7297668457031	-247.2466735839845	995.89599609375	222.9040527343749	-228.1738433837891	945.9028930664062	193.9006652832031	-231.5589294433595	944.7647705078125	245.690689086914	-246.2924804687501	886.2711791992188	217.3998413085937	-24.64910697937016	667.2747192382812	27.39688873291015	-42.38099670410161	594.9519653320312	51.64893722534179	2.092252731323198	612.5014038085938	38.20433044433594	66.46019744873045	338.1208190917969	27.17143058776857	31.77826499938962	268.8160095214844	44.02547454833985	79.78086853027342	278.0221862792969	33.93476486206056	56.61708068847653	73.08733367919922	122.2677688598633	276.7857055664062	96.97006225585939	109.7198181152344	235.6559753417969	61.50138473510744	18.04351425170903	-190.2636566162111	688.7296142578125	401.1018371582031	-144.4074707031251	623.7598266601562	404.5601806640625	-191.8662109375001	628.8392333984375	388.9443359374999	-272.9854431152344	343.9024658203125	372.6767272949218	-252.2822875976563	267.7138671875	366.1108703613281	-297.3696594238282	288.5939025878906	358.3944091796874	-371.0590515136719	81.57128143310544	245.1405639648437	-164.5766143798829	43.31542587280273	253.7557220458984	-213.4618072509766	39.77004623413085	356.6535034179687	12.58991718292224	1324.702026367188	225.45556640625	22.70988273620594	1180.095336914062	226.7065887451172	-82.91304779052744	1389.985595703125	52.40389251708983	-113.6114654541016	1237.417358398438	-50.1231384277344	-136.6090393066407	1178.02783203125	-68.47636413574222	-88.51275634765631	1176.7021484375	-51.73977279663087	-133.9680786132813	977.8845825195312	-103.051513671875	-181.2268371582032	916.5403442382812	-85.95957183837893	-135.7361450195313	916.1734619140625	-106.7282257080078	-129.869384765625	812.7474975585938	-117.076400756836	-81.55101013183597	803.71484375	-55.30354690551759	-65.25675964355484	1381.676147460938	396.2222595214844	-58.67830657959001	1237.994140625	500.897216796875	-23.89203453063981	1181.579345703125	506.6161499023438	-71.50138854980486	1178.692016601562	526.4988403320312	38.17528152465805	976.1524047851562	543.7564697265625	116.1582565307616	959.2518310546875	545.75830078125	78.15806579589828	929.6829833984375	532.6766357421875	152.3444366455077	877.9328002929688	519.1682739257812	178.403121948242	898.171142578125	444.2969665527344	
86	0.425	83.88403320312486	1580.535522460938	234.8752899169922	35.50132751464828	1609.37646484375	299.3791198730469	41.60091018676745	1604.770385742188	161.3799896240234	-148.2951812744142	1428.687133789062	229.159912109375	-211.9981536865236	1262.652587890625	225.9360198974609	-220.6025238037111	1222.876342773438	204.3923950195312	-226.4860229492189	1215.56103515625	254.2232208251953	-219.178192138672	1158.7373046875	220.101806640625	-199.0932617187501	1091.497436523438	220.6496276855468	-233.1765289306641	1056.822875976562	201.0216369628906	-235.7257080078126	1055.277099609375	252.0255584716796	-240.2177124023438	994.7520141601562	222.2747039794921	-221.0892944335938	944.9050903320312	193.2734069824218	-224.7465057373048	944.0628051757812	245.0900115966797	-239.7261352539063	885.5177612304688	216.9862823486328	-19.29268264770512	664.8175048828125	28.55135536193847	-36.92123794555668	592.9646606445312	54.1606216430664	7.375610351562456	610.095458984375	39.57536315917969	78.12172698974608	335.9140014648438	26.95665168762208	45.61830520629881	265.3774108886719	43.13910675048829	93.34283447265624	276.2088012695312	33.39474105834962	76.55458068847653	70.12687683105469	120.4446868896485	295.9309387207031	100.8025588989258	108.4985046386719	256.1324768066406	64.50978088378908	16.57722091674809	-185.7132415771486	688.7701416015625	400.9284973144531	-140.4785766601564	623.3827514648438	404.7383117675781	-187.7894592285157	628.8674926757812	388.8081054687499	-271.1129760742188	344.4679260253906	372.5722351074218	-250.9365997314454	268.1365966796875	366.1367797851562	-295.8479919433594	289.3292541503906	358.2752075195312	-370.7243652343751	82.57628631591794	245.0422363281249	-164.5314483642579	43.34347534179687	253.6871337890625	-213.3116302490235	39.72611618041991	356.6230468749999	19.75373649597156	1323.394165039062	224.8616333007812	29.71527862548817	1178.761840820312	226.3338165283203	-75.62168121337901	1388.592163085938	51.64283752441405	-106.9491271972657	1236.018676757812	-50.72760009765627	-130.2314910888673	1176.691040039062	-68.93286895751956	-82.09243774414068	1175.187744140625	-52.30563354492189	-128.8889312744141	976.6693725585938	-103.4151458740235	-176.5500183105469	915.6851196289062	-86.12555694580081	-131.1776428222657	914.9895629882812	-107.128776550293	-126.1765823364258	811.5326538085938	-117.6062316894532	-77.68836975097659	802.0313110351562	-56.09050750732423	-58.21705245971695	1380.582641601562	395.5075378417969	-51.29845428466814	1237.103149414062	500.2215576171875	-16.20887374877946	1180.918823242188	506.1728210449219	-63.84658050537126	1177.803466796875	525.9176025390625	47.68038940429672	976.1638793945312	543.1929931640625	125.8808441162108	960.2667236328125	544.8636474609375	88.21802520751937	930.2398681640625	531.8772583007812	162.9620513916014	879.4283447265625	517.983642578125	188.6556701660155	900.3742065429688	443.1618041992188	
87	0.43	91.11968231201158	1579.280517578125	233.8084716796875	42.74414825439437	1608.239501953125	298.2720642089844	48.86413192749011	1603.390014648438	160.2559967041016	-141.0766601562501	1427.525756835938	228.2989196777343	-204.8453979492189	1261.54052734375	225.0723266601562	-213.4191284179689	1221.739013671875	203.5168914794922	-219.5338745117189	1214.4853515625	253.363037109375	-212.1478576660157	1157.634521484375	219.2786865234375	-192.1241455078126	1090.332763671875	219.891845703125	-225.9770965576173	1055.585205078125	200.2739715576172	-228.7177276611329	1054.181274414062	251.3197937011718	-233.1465759277345	993.5640258789062	221.6453094482421	-213.9531860351563	943.9052734375	192.6248779296875	-217.8909454345704	943.3573608398438	244.4634704589843	-233.1104583740235	884.7632446289062	216.5381317138671	-14.05364036560063	662.3270263671875	29.64572525024414	-31.59580230712895	590.9632568359375	56.6341438293457	12.51768589019771	607.6512451171875	40.89842987060547	89.65627288818358	333.8524780273438	26.71944808959963	59.30669784545896	262.1802673339844	42.22310638427736	106.7227325439453	274.5872192382812	32.85564422607424	96.17475891113278	67.57083892822266	118.6711807250977	314.5777587890625	104.8008575439453	107.4077224731446	276.1340942382812	67.71481323242189	15.24265289306646	-181.1145935058595	688.8158569335938	400.7146606445312	-136.4966430664064	623.0243530273438	404.919677734375	-183.6419067382814	628.8955078125	388.6447143554687	-269.1371459960938	345.0650634765625	372.4800109863281	-249.5064392089845	268.591064453125	366.1744995117187	-294.2346801757813	290.1012878417969	358.1690368652343	-370.3661193847657	83.65782165527341	244.9667968749999	-164.4823760986329	43.37245178222656	253.6140747070312	-213.1572570800782	39.69259643554686	356.5982360839843	26.94102668762195	1322.078002929688	224.2448577880859	36.75242996215809	1177.421997070312	225.9416198730469	-68.29598999023447	1387.181762695312	50.85331344604491	-100.2322692871094	1234.6015625	-51.36069107055666	-123.7999877929688	1175.336181640625	-69.41481781005862	-75.61929321289068	1173.6552734375	-52.89366149902345	-123.7269897460938	975.4348754882812	-103.7954177856446	-171.7731018066407	914.8055419921875	-86.30398559570315	-126.5215759277344	913.7908325195312	-107.5387573242188	-122.3578338623047	810.3101806640625	-118.1305160522461	-73.7084884643555	800.3580322265625	-56.86588287353517	-51.15552520751969	1379.473510742188	394.7650146484375	-43.91431808471697	1236.1826171875	499.5053405761719	-8.536392211914228	1180.22119140625	505.6788635253906	-56.20504379272478	1176.881713867188	525.2769775390625	57.11009979248031	976.138916015625	542.5869140625	135.5100097656248	961.2230834960938	543.952880859375	98.18427276611312	930.751953125	531.0528564453125	173.4668884277342	880.8727416992188	516.80224609375	198.7934112548827	902.4774169921875	442.0268859863282	
